<?xml version="1.0" encoding="utf-8"?>
<!-- Generator: Adobe Illustrator 23.0.3, SVG Export Plug-In . SVG Version: 6.00 Build 0)  -->
<svg version="1.1" id="Layer_1" xmlns="http://www.w3.org/2000/svg" xmlns:xlink="http://www.w3.org/1999/xlink" x="0px" y="0px"
	 viewBox="0 0 283.46 113.39" style="enable-background:new 0 0 283.46 113.39;" xml:space="preserve">
<style type="text/css">
	.st0{fill:none;stroke:#040000;stroke-width:2;stroke-miterlimit:10;}
	.st1{fill:none;stroke:#040000;stroke-width:2;stroke-linecap:round;stroke-linejoin:round;stroke-miterlimit:10;}
</style>
<g>
	<path d="M94.58,52.39c0,0.14-0.05,0.32-0.14,0.52c-0.1,0.2-0.22,0.43-0.36,0.66c-0.07,0.07-0.14,0.15-0.22,0.23
		c-0.07,0.08-0.14,0.17-0.22,0.27c-0.07,0.07-0.14,0.16-0.22,0.25c-0.07,0.1-0.14,0.18-0.22,0.25l-0.65,0.14
		c-0.14-0.05-0.25-0.08-0.31-0.11c-0.06-0.02-0.1-0.04-0.13-0.04c-0.29-0.14-0.63-0.41-1.02-0.79c-0.4-0.38-0.84-0.89-1.35-1.51
		c-1.39-1.53-2.44-2.69-3.14-3.48c-0.71-0.79-1.06-1.21-1.06-1.26l-0.22-0.36v-0.43c-0.22-0.1-0.38-0.18-0.5-0.25
		c-0.12-0.07-0.19-0.13-0.22-0.18c-0.07-0.07-0.18-0.18-0.32-0.34c-0.14-0.16-0.31-0.35-0.5-0.59c-0.19-0.24-0.43-0.51-0.7-0.83
		c-0.28-0.31-0.57-0.67-0.88-1.08c-0.55-0.57-1.02-1.11-1.4-1.6c-0.38-0.49-0.68-0.93-0.9-1.31c-0.07,0.05-0.14,0.11-0.22,0.18
		c-0.07,0.07-0.16,0.16-0.25,0.25c-0.12,0.12-0.25,0.25-0.38,0.38c-0.13,0.13-0.27,0.28-0.41,0.45c-0.34,0.36-0.59,0.65-0.77,0.88
		c-0.18,0.23-0.29,0.38-0.34,0.45v0.47l-0.25,0.04c-0.05,0.05-0.17,0.18-0.36,0.4c-0.19,0.22-0.46,0.52-0.79,0.9
		c-0.34,0.38-0.75,0.86-1.24,1.42c-0.49,0.56-1.05,1.2-1.67,1.92c-1.29,1.49-2.28,2.64-2.96,3.47s-1.06,1.31-1.13,1.45
		c-0.14,0.22-0.28,0.41-0.41,0.57c-0.13,0.17-0.25,0.3-0.34,0.4c-0.19,0.19-0.39,0.33-0.59,0.41c-0.2,0.08-0.39,0.13-0.56,0.13
		h-0.18c-0.07-0.05-0.19-0.08-0.36-0.11c-0.17-0.02-0.36-0.04-0.57-0.04c-0.07-0.02-0.16-0.1-0.25-0.22
		c-0.1-0.12-0.19-0.27-0.29-0.47c-0.12-0.17-0.2-0.32-0.25-0.47c-0.05-0.14-0.07-0.27-0.07-0.4c0-0.19,0.23-0.62,0.68-1.27
		c0.45-0.66,1.15-1.54,2.08-2.64c0.91-1.1,1.68-1.99,2.3-2.66c0.62-0.67,1.1-1.15,1.44-1.44c0-0.14,0.3-0.62,0.9-1.44
		c0.6-0.81,1.51-1.96,2.73-3.45c1.22-1.44,2.21-2.56,2.98-3.38c0.77-0.81,1.32-1.32,1.65-1.51c0.02,0.07,0.07,0.14,0.14,0.22
		c0.07,0.07,0.14,0.13,0.22,0.18c0.05,0.07,0.11,0.13,0.18,0.18c0.07,0.05,0.17,0.11,0.29,0.18c0.07,0.22,0.18,0.44,0.34,0.68
		c0.16,0.24,0.36,0.5,0.63,0.79c0.22,0.34,0.4,0.59,0.56,0.77c0.16,0.18,0.28,0.28,0.38,0.31c0.05,0.14,0.17,0.34,0.38,0.57
		c0.2,0.24,0.5,0.54,0.88,0.9c0.36,0.36,0.66,0.65,0.92,0.88c0.25,0.23,0.45,0.37,0.59,0.41c0.02,0.05,0.05,0.11,0.09,0.2
		c0.04,0.08,0.08,0.2,0.13,0.34c0.02,0.14,0.06,0.26,0.11,0.36c0.05,0.1,0.1,0.17,0.14,0.22c0.31,0.36,0.63,0.72,0.95,1.1
		c0.32,0.37,0.65,0.74,0.99,1.1c0.31,0.36,0.63,0.72,0.97,1.08c0.33,0.36,0.67,0.72,1.01,1.08c0.26,0.29,0.51,0.56,0.75,0.81
		c0.24,0.25,0.47,0.48,0.68,0.7c0.22,0.24,0.42,0.46,0.63,0.66c0.2,0.2,0.4,0.39,0.59,0.56c0.65,0.74,1.14,1.35,1.49,1.83
		C94.41,51.83,94.58,52.17,94.58,52.39z M94.47,56.91c0,0.07,0.01,0.14,0.02,0.22c0.01,0.07,0.03,0.14,0.05,0.22
		c0.02,0.05,0.04,0.1,0.05,0.16c0.01,0.06,0.03,0.11,0.05,0.16c0,0.07,0.01,0.14,0.02,0.2c0.01,0.06,0.02,0.11,0.02,0.16
		c0,0.05,0.01,0.1,0.02,0.14c0.01,0.05,0.02,0.08,0.02,0.11c0,0.26-0.04,0.51-0.11,0.74c-0.07,0.23-0.17,0.44-0.29,0.63l-0.93,0.22
		c-0.22-0.02-0.43-0.05-0.65-0.09s-0.43-0.08-0.65-0.13l-1.22,0.04H87c-0.07,0-0.14-0.01-0.22-0.02c-0.07-0.01-0.14-0.02-0.22-0.02
		c-0.05,0-0.1-0.01-0.16-0.02c-0.06-0.01-0.1-0.02-0.13-0.02l-0.43,0.07c-0.14,0-0.28-0.01-0.41-0.04
		c-0.13-0.02-0.27-0.04-0.41-0.04c-0.17,0-0.31,0-0.43,0c-0.12,0-0.22,0-0.29,0c-0.14,0-0.28,0-0.41,0c-0.13,0-0.25,0-0.34,0
		c-0.12,0-0.25-0.01-0.38-0.04c-0.13-0.02-0.27-0.06-0.41-0.11c-0.05,0.03-0.09,0.04-0.13,0.05c-0.04,0.01-0.08,0.03-0.13,0.05
		c-0.05,0.03-0.1,0.05-0.14,0.09c-0.05,0.04-0.11,0.07-0.18,0.09l-3.05-0.07c-0.34,0-0.64,0.01-0.92,0.04
		c-0.28,0.03-0.52,0.04-0.74,0.04c-0.29,0.03-0.52,0.06-0.7,0.11c-0.18,0.05-0.33,0.11-0.45,0.18h-0.14l-2.69-0.11
		c-0.1,0-0.2-0.01-0.31-0.02c-0.11-0.01-0.22-0.05-0.34-0.13c-0.1,0-0.17-0.01-0.23-0.04c-0.06-0.02-0.11-0.04-0.16-0.04
		c-0.05-0.02-0.09-0.04-0.13-0.05c-0.04-0.01-0.07-0.02-0.09-0.02l-2.05,0.11c-0.17,0-0.36,0.01-0.57,0.04
		c-0.22,0.03-0.44,0.05-0.68,0.07c-0.26,0.05-0.47,0.07-0.61,0.07c-0.14,0-0.23,0-0.25,0c-0.22,0-0.42,0-0.61,0
		c-0.19,0-0.37,0-0.54,0c-0.34,0-0.59-0.02-0.77-0.07c-0.18-0.05-0.29-0.11-0.34-0.18c-0.12-0.07-0.2-0.2-0.25-0.38
		c-0.05-0.18-0.07-0.4-0.07-0.66c-0.02-0.22-0.05-0.41-0.09-0.57c-0.04-0.17-0.08-0.31-0.13-0.43c0.1-0.14,0.18-0.28,0.25-0.41
		c0.07-0.13,0.11-0.27,0.11-0.41l0.72,0.14c0.22,0,0.49-0.01,0.83-0.02c0.33-0.01,0.75-0.04,1.26-0.09c0.43-0.02,0.83-0.05,1.2-0.07
		c0.37-0.02,0.69-0.04,0.95-0.04c0.02,0,0.07,0,0.14,0c0.07,0,0.18-0.02,0.32-0.07c0.1-0.02,0.18-0.05,0.25-0.07
		c0.07-0.02,0.13-0.04,0.18-0.04l0.22,0.25c0,0.03,0.02,0.04,0.07,0.05c0.05,0.01,0.13,0.02,0.25,0.02l1.51,0.04
		c0.24,0,0.47,0,0.68,0c0.22,0,0.42-0.01,0.61-0.04c0.33,0,0.63-0.01,0.9-0.04c0.26-0.02,0.49-0.04,0.68-0.04
		c0.19-0.02,0.34-0.04,0.45-0.05c0.11-0.01,0.18-0.02,0.23-0.02c0.26,0,0.48,0.01,0.66,0.04c0.18,0.03,0.33,0.04,0.45,0.04
		c0.07,0,0.15-0.01,0.23-0.02c0.08-0.01,0.16-0.03,0.23-0.05c0.07-0.02,0.14-0.04,0.22-0.05c0.07-0.01,0.14-0.03,0.22-0.05
		c0.05,0,0.1-0.01,0.16-0.02c0.06-0.01,0.11-0.02,0.16-0.02c0.07,0,0.13-0.01,0.18-0.02c0.05-0.01,0.1-0.02,0.14-0.02
		c0.02,0,0.08,0.01,0.18,0.04c0.1,0.03,0.22,0.05,0.36,0.07c0.1,0.05,0.18,0.07,0.27,0.07c0.08,0,0.15,0,0.2,0c0.12,0,0.3,0,0.54,0
		c0.24,0,0.54-0.02,0.9-0.07c0.14,0,0.28-0.01,0.41-0.02c0.13-0.01,0.25-0.02,0.34-0.02c0.07,0,0.14-0.01,0.2-0.02
		c0.06-0.01,0.1-0.02,0.13-0.02c0.1,0,0.22,0.01,0.36,0.02c0.14,0.01,0.3,0.02,0.47,0.02c0.17,0,0.36,0.01,0.57,0.02
		c0.22,0.01,0.45,0.02,0.72,0.02c0.5,0.05,0.89,0.07,1.15,0.07c0.26,0,0.42,0,0.47,0c0.29,0,0.65,0,1.08,0
		c0.43,0,0.93-0.02,1.51-0.07c0.5-0.02,0.92-0.05,1.26-0.07c0.33-0.02,0.56-0.04,0.68-0.04c0.36,0,0.68,0.01,0.95,0.04
		c0.27,0.03,0.51,0.04,0.7,0.04c0.17,0.03,0.36,0.06,0.57,0.11C93.97,56.78,94.21,56.84,94.47,56.91z M80.03,66.54
		c-0.57,0-1.06-0.06-1.45-0.18c-0.4-0.12-0.68-0.3-0.84-0.54c-0.19-0.26-0.32-0.61-0.4-1.04c-0.07-0.43-0.11-0.94-0.11-1.54
		c0-0.33,0.1-0.63,0.31-0.9c0.2-0.26,0.52-0.48,0.95-0.65c0.31-0.1,0.65-0.18,1.01-0.25c0.36-0.07,0.75-0.11,1.19-0.11
		c0.22,0,0.44,0.07,0.66,0.2c0.23,0.13,0.46,0.31,0.7,0.52c0.22,0.24,0.38,0.48,0.48,0.74c0.11,0.25,0.16,0.5,0.16,0.74
		c0,0.46-0.05,0.86-0.16,1.22s-0.27,0.68-0.48,0.97c-0.24,0.29-0.53,0.5-0.86,0.63C80.85,66.47,80.47,66.54,80.03,66.54z"/>
	<path d="M119.54,40.36l0.04,0.75c0,0.24-0.02,0.44-0.05,0.61c-0.04,0.17-0.07,0.29-0.09,0.36c-0.07,0.12-0.15,0.22-0.23,0.31
		c-0.08,0.08-0.17,0.15-0.27,0.2c-0.12,0.07-0.38,0.13-0.79,0.16c-0.41,0.04-0.95,0.07-1.62,0.09c-0.72,0.05-1.42,0.07-2.12,0.07
		c-0.69,0-1.4,0-2.12,0c0.43,0.07,0.84,0.16,1.22,0.25c0.38,0.1,0.77,0.22,1.15,0.36c0.33,0.14,0.67,0.33,1.01,0.56
		c0.33,0.23,0.65,0.47,0.93,0.74c0.07,0.22,0.15,0.43,0.23,0.63c0.08,0.2,0.2,0.39,0.34,0.56c0.14,0.36,0.26,0.7,0.34,1.02
		c0.08,0.32,0.13,0.62,0.13,0.88c0,0.14-0.01,0.29-0.04,0.45c-0.02,0.16-0.05,0.32-0.07,0.48c0.02,0.14,0.05,0.31,0.09,0.48
		c0.04,0.18,0.05,0.37,0.05,0.56c0,0.79-0.18,1.51-0.54,2.15c-0.36,0.65-0.86,1.22-1.51,1.72c-0.65,0.5-1.32,0.87-2.03,1.11
		c-0.71,0.24-1.43,0.36-2.17,0.36c-0.14,0-0.29,0-0.45,0c-0.16,0-0.29-0.02-0.41-0.07c-0.14,0-0.27-0.02-0.38-0.05
		s-0.2-0.09-0.27-0.16c-0.05-0.02-0.1-0.05-0.14-0.07c-0.05-0.02-0.1-0.05-0.14-0.07c-0.05,0-0.1-0.01-0.16-0.04
		c-0.06-0.02-0.13-0.06-0.2-0.11c-0.14,0-0.26-0.02-0.36-0.05c-0.1-0.04-0.16-0.08-0.18-0.13c-0.14-0.07-0.27-0.13-0.38-0.18
		c-0.11-0.05-0.21-0.11-0.31-0.18c-0.07-0.05-0.15-0.09-0.23-0.13c-0.08-0.04-0.15-0.08-0.2-0.13c-0.12-0.07-0.24-0.15-0.36-0.23
		c-0.12-0.08-0.24-0.2-0.36-0.34c-0.14-0.12-0.29-0.32-0.45-0.61c-0.16-0.29-0.33-0.68-0.52-1.19c-0.22-0.43-0.37-0.81-0.45-1.15
		c-0.08-0.33-0.13-0.61-0.13-0.83c0-0.69,0.1-1.38,0.29-2.05c0.19-0.67,0.5-1.34,0.93-2.01c0.38-0.65,0.83-1.17,1.35-1.56
		c0.51-0.4,1.1-0.66,1.74-0.81c-0.22,0-0.41-0.01-0.59-0.02c-0.18-0.01-0.35-0.03-0.52-0.05c-0.14-0.02-0.29-0.04-0.45-0.05
		c-0.16-0.01-0.29-0.03-0.41-0.05c-0.29,0-0.55-0.03-0.79-0.09c-0.24-0.06-0.47-0.13-0.68-0.2c-0.14,0.05-0.3,0.08-0.47,0.11
		c-0.17,0.02-0.32,0.04-0.47,0.04c-0.19,0.02-0.38,0.04-0.57,0.04c-0.19,0-0.38,0-0.57,0c-0.14,0-0.26-0.04-0.36-0.11
		c-0.1-0.07-0.17-0.19-0.22-0.36c-0.07-0.17-0.13-0.32-0.16-0.47c-0.04-0.14-0.05-0.26-0.05-0.36c0-0.14,0.01-0.31,0.02-0.5
		c0.01-0.19,0.04-0.38,0.09-0.57c0.02-0.19,0.09-0.36,0.2-0.52c0.11-0.16,0.26-0.29,0.45-0.41h2.15c0.41,0,0.85,0.04,1.33,0.11
		c0.48,0.07,0.97,0.16,1.47,0.25c0.07-0.1,0.14-0.19,0.2-0.29c0.06-0.1,0.11-0.18,0.16-0.25c0.02-0.07,0.05-0.13,0.07-0.18
		c0.02-0.05,0.05-0.08,0.07-0.11c0-0.02,0.01-0.07,0.04-0.14c0.02-0.07,0.04-0.18,0.04-0.32c0-0.1-0.01-0.22-0.04-0.38
		c-0.02-0.16-0.05-0.34-0.07-0.56c-0.05-0.17-0.07-0.31-0.07-0.43c0-0.12,0-0.2,0-0.25c0-0.07,0-0.17,0-0.29
		c0-0.12,0.02-0.29,0.07-0.5c0.02-0.17,0.05-0.31,0.07-0.43c0.02-0.12,0.04-0.22,0.04-0.29c0.07-0.05,0.13-0.13,0.18-0.23
		c0.05-0.11,0.1-0.27,0.14-0.48c0.14,0,0.29-0.01,0.43-0.02c0.14-0.01,0.32-0.04,0.54-0.09c0.07,0,0.14-0.01,0.22-0.02
		c0.07-0.01,0.14-0.02,0.22-0.02c0.07,0,0.14-0.01,0.22-0.02c0.07-0.01,0.14-0.02,0.22-0.02c0.36,0,0.66,0.05,0.92,0.14
		c0.25,0.1,0.44,0.22,0.56,0.36c0.1,0.17,0.17,0.4,0.23,0.7c0.06,0.3,0.09,0.66,0.09,1.1c0,0.05-0.01,0.1-0.02,0.14
		c-0.01,0.05-0.02,0.1-0.02,0.14c0,0.05-0.01,0.11-0.02,0.18c-0.01,0.07-0.02,0.14-0.02,0.22c-0.05,0.22-0.07,0.39-0.07,0.52
		c0,0.13,0,0.23,0,0.31l-0.04,0.32c0,0.14,0.01,0.28,0.04,0.41c0.02,0.13,0.07,0.26,0.14,0.38l0.97,0.07l0.86-0.11l1.8,0.11
		c0.38,0,0.7,0.02,0.95,0.05c0.25,0.04,0.42,0.07,0.52,0.09c0.14,0.14,0.29,0.27,0.43,0.38C119.25,40.16,119.4,40.26,119.54,40.36z
		 M129.7,64.35c0.07,0.1,0.13,0.2,0.16,0.31c0.04,0.11,0.08,0.21,0.13,0.31c0,0.12,0.01,0.24,0.04,0.36
		c0.02,0.12,0.04,0.25,0.04,0.4c0,0.36-0.05,0.7-0.14,1.02c-0.1,0.32-0.23,0.63-0.4,0.92c-0.07,0.05-0.19,0.1-0.34,0.14
		c-0.16,0.05-0.33,0.08-0.52,0.11c-0.22,0.05-0.4,0.08-0.56,0.09c-0.16,0.01-0.27,0.02-0.34,0.02c-0.12,0-0.23,0-0.32,0
		c-0.1,0-0.2,0-0.32,0c-0.12,0-0.24-0.01-0.36-0.02c-0.12-0.01-0.24-0.03-0.36-0.05c-0.29-0.03-0.52-0.05-0.68-0.07
		c-0.17-0.03-0.28-0.04-0.32-0.04c-0.65,0-1.27-0.01-1.89-0.02c-0.61-0.01-1.2-0.04-1.78-0.09c-1.87-0.1-3.31-0.17-4.33-0.23
		c-1.02-0.06-1.61-0.09-1.78-0.09c-0.22,0-0.4,0.01-0.54,0.02c-0.14,0.01-0.28,0.03-0.4,0.05c-0.26,0.05-0.49,0.09-0.68,0.13
		c-0.19,0.04-0.36,0.05-0.5,0.05c-0.12,0.02-0.22,0.04-0.31,0.05c-0.08,0.01-0.14,0.02-0.16,0.02c-0.02,0-0.06,0-0.11,0
		c-0.05,0-0.1,0-0.14,0c-0.05,0-0.1-0.01-0.16-0.02c-0.06-0.01-0.13-0.03-0.2-0.05c-0.17-0.03-0.31-0.04-0.41-0.05
		c-0.11-0.01-0.2-0.02-0.27-0.02l-3.99,0.04c-0.12,0-0.24,0.01-0.36,0.04c-0.12,0.02-0.25,0.05-0.4,0.07
		c-0.19,0.05-0.37,0.09-0.52,0.13c-0.16,0.04-0.29,0.05-0.41,0.05c-0.12,0.02-0.22,0.04-0.31,0.05c-0.08,0.01-0.14,0.02-0.16,0.02
		c-0.12,0-0.23,0-0.32,0c-0.1,0-0.19-0.01-0.29-0.04c-0.1,0-0.19-0.01-0.29-0.04c-0.1-0.03-0.19-0.05-0.29-0.07
		c-0.14-0.07-0.27-0.19-0.38-0.34c-0.11-0.16-0.17-0.35-0.2-0.59c-0.07-0.22-0.11-0.46-0.13-0.72c-0.01-0.26-0.02-0.56-0.02-0.9
		c0-0.14,0-0.32,0-0.52c0-0.2,0.01-0.44,0.04-0.7c0-0.14,0-0.27,0-0.4c0-0.12,0-0.23,0-0.32c0-0.1,0.01-0.18,0.02-0.25
		c0.01-0.07,0.02-0.13,0.02-0.18c0-0.31-0.02-0.56-0.05-0.75c-0.04-0.19-0.09-0.32-0.16-0.4v-0.83c0-0.22,0-0.5,0-0.86
		c0-0.36,0.02-0.79,0.07-1.29c0-0.24,0.01-0.45,0.02-0.65c0.01-0.19,0.02-0.35,0.02-0.47c0-0.14,0.01-0.26,0.02-0.34
		c0.01-0.08,0.02-0.14,0.02-0.16c0-0.24,0.04-0.46,0.11-0.66c0.07-0.2,0.18-0.41,0.32-0.63c0.14-0.17,0.32-0.3,0.54-0.4
		c0.22-0.1,0.47-0.14,0.75-0.14c0.5,0,0.91,0.05,1.22,0.14c0.31,0.1,0.53,0.22,0.65,0.36c0.1,0.17,0.17,0.43,0.23,0.79
		c0.06,0.36,0.09,0.79,0.09,1.29c0,0.14-0.01,0.31-0.04,0.5c-0.02,0.19-0.05,0.4-0.07,0.61c-0.05,0.24-0.07,0.43-0.07,0.56
		c0,0.13,0,0.21,0,0.23c0,0.29,0,0.57,0,0.86s0.02,0.54,0.07,0.75c0.02,0.43,0.05,0.82,0.09,1.15c0.04,0.34,0.07,0.62,0.09,0.86
		c0,0.24,0.01,0.43,0.04,0.56c0.02,0.13,0.04,0.21,0.04,0.23c0.12-0.07,0.26-0.13,0.41-0.16c0.16-0.04,0.34-0.05,0.56-0.05
		c0.17-0.02,0.36-0.04,0.59-0.05c0.23-0.01,0.46-0.02,0.7-0.02c0.14,0,0.35,0.01,0.61,0.04c0.26,0.03,0.59,0.05,0.97,0.07
		c0.33,0.05,0.64,0.08,0.92,0.09c0.27,0.01,0.51,0.02,0.7,0.02l6.61-0.11c0.22,0,0.48,0.01,0.81,0.04c0.32,0.02,0.71,0.06,1.17,0.11
		c0.43,0.05,0.8,0.08,1.1,0.09c0.3,0.01,0.52,0.02,0.66,0.02c0.14,0,0.34-0.01,0.59-0.02c0.25-0.01,0.57-0.04,0.95-0.09
		c0.33-0.03,0.63-0.05,0.9-0.07c0.26-0.03,0.49-0.04,0.68-0.04c0.29,0,0.58,0.01,0.88,0.04c0.3,0.02,0.59,0.05,0.88,0.07
		c0.14,0.02,0.27,0.04,0.4,0.05c0.12,0.01,0.23,0.03,0.32,0.05c0.12,0,0.22,0.01,0.31,0.02C129.55,64.34,129.63,64.35,129.7,64.35z
		 M111.06,46.1c-0.29,0-0.55,0.08-0.79,0.25c-0.24,0.17-0.47,0.41-0.68,0.72c-0.22,0.24-0.4,0.5-0.56,0.77
		c-0.16,0.28-0.28,0.57-0.38,0.88c0.12,0.55,0.25,1.01,0.38,1.36c0.13,0.36,0.27,0.62,0.41,0.79c0.22,0.34,0.48,0.58,0.81,0.74
		c0.32,0.16,0.72,0.23,1.2,0.23c0.33,0,0.67-0.05,1.01-0.16c0.33-0.11,0.65-0.31,0.93-0.59c0.29-0.24,0.51-0.51,0.68-0.83
		c0.17-0.31,0.25-0.65,0.25-1.01c0-0.33-0.05-0.67-0.16-1.01c-0.11-0.33-0.26-0.65-0.45-0.93c-0.22-0.29-0.46-0.51-0.72-0.68
		c-0.26-0.17-0.56-0.25-0.9-0.25c-0.29-0.07-0.52-0.14-0.7-0.2C111.23,46.13,111.11,46.1,111.06,46.1z M125.54,40.14
		c0,0.36-0.06,0.69-0.18,1.01c-0.12,0.31-0.29,0.6-0.5,0.86c-0.24,0.29-0.5,0.5-0.79,0.63c-0.29,0.13-0.59,0.2-0.9,0.2l-1.87-0.07
		c-0.22-0.19-0.41-0.38-0.59-0.56s-0.35-0.38-0.52-0.59c-0.14-0.14-0.23-0.36-0.27-0.66c-0.04-0.3-0.05-0.66-0.05-1.1
		c0-0.41,0.1-0.75,0.29-1.04c0.19-0.29,0.48-0.53,0.86-0.72c0.26-0.12,0.58-0.22,0.95-0.31c0.37-0.08,0.8-0.13,1.27-0.13
		c0.29,0,0.57,0.07,0.84,0.22c0.27,0.14,0.53,0.34,0.77,0.57c0.22,0.26,0.38,0.54,0.5,0.83C125.48,39.57,125.54,39.85,125.54,40.14z
		 M122.84,51.27c-0.57,0-1.06-0.05-1.45-0.16c-0.4-0.11-0.68-0.29-0.84-0.56c-0.19-0.26-0.33-0.6-0.41-1.02
		c-0.08-0.42-0.13-0.95-0.13-1.6c0-0.31,0.1-0.6,0.31-0.86c0.2-0.26,0.52-0.49,0.95-0.68c0.29-0.1,0.61-0.18,0.97-0.25
		c0.36-0.07,0.75-0.11,1.19-0.11c0.24,0,0.48,0.07,0.72,0.2c0.24,0.13,0.47,0.31,0.68,0.52c0.19,0.26,0.34,0.52,0.45,0.77
		c0.11,0.25,0.16,0.5,0.16,0.74c0,0.46-0.05,0.86-0.16,1.22s-0.27,0.68-0.48,0.97c-0.24,0.29-0.52,0.5-0.83,0.63
		C123.65,51.21,123.28,51.27,122.84,51.27z M129.88,53.32l-0.07,0.43c-0.02,0.02-0.05,0.05-0.07,0.07
		c-0.02,0.02-0.05,0.06-0.07,0.11c-0.05,0.05-0.09,0.1-0.13,0.14c-0.04,0.05-0.07,0.11-0.09,0.18c-0.14,0.17-0.26,0.29-0.34,0.38
		c-0.08,0.08-0.16,0.13-0.23,0.13c-0.17,0.07-0.32,0.12-0.47,0.14c-0.14,0.02-0.28,0.04-0.4,0.04l-1.01-0.54h-0.43
		c-0.12-0.02-0.23-0.08-0.32-0.16c-0.1-0.08-0.16-0.18-0.18-0.31c-0.05-0.1-0.08-0.21-0.09-0.34c-0.01-0.13-0.02-0.31-0.02-0.52
		c0-0.1,0-0.19,0-0.29c0-0.1,0-0.18,0-0.25c0-0.07,0.01-0.14,0.02-0.2c0.01-0.06,0.02-0.11,0.02-0.16c0-0.48-0.01-0.99-0.04-1.54
		c-0.02-0.55-0.05-1.16-0.07-1.83c-0.1-1.51-0.16-2.74-0.2-3.7c-0.04-0.96-0.05-1.62-0.05-1.98c0-0.07,0.01-0.18,0.02-0.34
		c0.01-0.16,0.05-0.35,0.13-0.59c0-0.1,0.01-0.19,0.04-0.29c0.02-0.1,0.04-0.18,0.04-0.25c0.02-0.07,0.04-0.13,0.05-0.18
		c0.01-0.05,0.02-0.1,0.02-0.14c0-0.22-0.03-0.54-0.09-0.97c-0.06-0.43-0.14-0.97-0.23-1.62c-0.07-0.33-0.12-0.64-0.14-0.92
		c-0.02-0.27-0.04-0.51-0.04-0.7c0.07-0.07,0.14-0.21,0.22-0.41c0.07-0.2,0.13-0.48,0.18-0.84c0.02-0.31,0.09-0.57,0.2-0.77
		c0.11-0.2,0.27-0.36,0.48-0.48h1.08c0.07,0,0.14,0.01,0.22,0.02c0.07,0.01,0.14,0.02,0.22,0.02c0.05,0,0.1,0,0.16,0
		c0.06,0,0.13,0,0.2,0c0.1,0.02,0.2,0.06,0.31,0.11c0.11,0.05,0.23,0.11,0.38,0.18c0.12,0.29,0.22,0.53,0.29,0.74
		c0.07,0.2,0.13,0.35,0.18,0.45c0.02,0.14,0.05,0.26,0.07,0.36c0.02,0.1,0.04,0.18,0.04,0.25c0,0.14-0.01,0.27-0.02,0.38
		c-0.01,0.11-0.02,0.21-0.02,0.31c0,0.1,0,0.19,0,0.27c0,0.08,0,0.16,0,0.23c-0.07,0.62-0.11,1.1-0.13,1.44
		c-0.01,0.34-0.02,0.52-0.02,0.54c0,0.12,0.01,0.32,0.04,0.61c0.02,0.29,0.07,0.65,0.14,1.08c0,0.19,0.01,0.38,0.04,0.56
		c0.02,0.18,0.04,0.34,0.04,0.48c0,0.1-0.02,0.22-0.05,0.36s-0.09,0.31-0.16,0.5c-0.07,0.22-0.12,0.39-0.14,0.52
		c-0.02,0.13-0.04,0.22-0.04,0.27c0,0.12,0,0.26,0,0.43c0,0.17,0.02,0.36,0.07,0.57c0,0.14,0.01,0.26,0.02,0.36
		c0.01,0.1,0.02,0.17,0.02,0.22c0,0.07,0.01,0.13,0.02,0.16c0.01,0.04,0.02,0.07,0.02,0.11c0,0.04,0.01,0.11,0.02,0.22
		c0.01,0.11,0.04,0.23,0.09,0.38c0.02,0.17,0.05,0.31,0.07,0.41c0.02,0.11,0.04,0.2,0.04,0.27l-0.04,1.98c0,0.17,0,0.32,0,0.47
		s0.02,0.29,0.07,0.43c0.02,0.24,0.05,0.45,0.09,0.63c0.04,0.18,0.07,0.33,0.09,0.45c0,0.12,0.01,0.22,0.04,0.31
		C129.94,51.74,129.93,52.29,129.88,53.32z"/>
	<path d="M138.14,38.74l0.18-0.86l0.32-0.83l0.75,0.14c0.12,0,0.28,0,0.48,0c0.2,0,0.45-0.02,0.74-0.07l1.29-0.11l0.36-0.14
		l0.86-0.11l0.5,0.11c0.1,0.05,0.18,0.07,0.27,0.07c0.08,0,0.16,0,0.23,0l5.6,0.18l1.58-0.18l0.54,0.11l1.69-0.22l7,0.11l5.42-0.11
		c0.43,0,0.88,0.03,1.35,0.09c0.47,0.06,0.94,0.13,1.42,0.2l0.18,0.83l0.07,0.57c0,0.26-0.04,0.51-0.11,0.74
		c-0.07,0.23-0.17,0.41-0.29,0.56l-1.11,0.22l-2.33-0.25l-1.29,0.11c-0.07,0-0.14,0-0.22,0s-0.14-0.02-0.22-0.07L162.67,40
		l-0.68-0.18c-0.1,0.05-0.22,0.08-0.36,0.09c-0.14,0.01-0.31,0.02-0.5,0.02l-0.83,0.04l-0.72-0.04l-1.29-0.14h-1.83
		c-0.5,0.05-0.89,0.11-1.17,0.2c-0.28,0.08-0.41,0.17-0.41,0.27c0.1,0.14,0.2,0.27,0.31,0.38c0.11,0.11,0.22,0.22,0.34,0.34
		c0.1,0.1,0.19,0.2,0.29,0.31c0.1,0.11,0.2,0.2,0.32,0.27c0.29,0.29,0.56,0.52,0.81,0.7c0.25,0.18,0.47,0.31,0.66,0.38l3.16,3.05
		l2.51,2.48l3.12,2.69c0.84,0.79,1.47,1.4,1.9,1.81c0.43,0.42,0.65,0.66,0.65,0.74c0,0.14-0.07,0.31-0.2,0.5
		c-0.13,0.19-0.32,0.4-0.56,0.61c-0.26,0.26-0.5,0.45-0.7,0.56c-0.2,0.11-0.37,0.16-0.48,0.16c-0.12,0-0.23,0-0.34,0
		c-0.11,0-0.2-0.02-0.27-0.07l-0.61-0.14c-0.07,0-0.15-0.03-0.23-0.09c-0.08-0.06-0.2-0.15-0.34-0.27c-0.12-0.1-0.27-0.23-0.45-0.4
		c-0.18-0.17-0.38-0.36-0.59-0.57l-1.62-1.58c-0.36-0.26-0.72-0.53-1.08-0.81c-0.36-0.27-0.69-0.56-1.01-0.84
		c-0.36-0.36-0.81-0.81-1.35-1.36c-0.54-0.55-1.17-1.19-1.89-1.9c-0.89-0.86-1.6-1.53-2.14-1.99c-0.54-0.47-0.92-0.76-1.13-0.88
		l-1.47,0.72c-0.29,0.19-0.57,0.43-0.86,0.7c-0.29,0.28-0.61,0.59-0.97,0.95l-1.72,1.83l-0.9,1.22l-1.54,1.33l-1.44,1.44
		c-0.12,0.12-0.29,0.27-0.5,0.45c-0.22,0.18-0.47,0.38-0.75,0.59c-0.65,0.48-1.14,0.87-1.49,1.17c-0.35,0.3-0.53,0.5-0.56,0.59
		c-0.07,0.05-0.18,0.1-0.32,0.14c-0.14,0.05-0.32,0.1-0.54,0.14c-0.22,0.07-0.4,0.12-0.56,0.14c-0.16,0.03-0.27,0.04-0.34,0.04
		c-0.19,0-0.37-0.04-0.52-0.11c-0.16-0.07-0.31-0.18-0.45-0.32c-0.12-0.07-0.24-0.18-0.36-0.32c-0.12-0.14-0.25-0.32-0.4-0.54
		l0.22-0.43c0-0.07,0.04-0.16,0.11-0.27c0.07-0.11,0.18-0.23,0.32-0.38c0.1-0.14,0.26-0.33,0.5-0.57c0.24-0.24,0.54-0.5,0.9-0.79
		l3.12-2.77l3.91-3.91l4.02-3.84c0.02,0,0.11-0.07,0.25-0.2c0.14-0.13,0.32-0.34,0.54-0.63c0.22-0.24,0.38-0.43,0.5-0.57
		c0.12-0.14,0.18-0.24,0.18-0.29L152.19,40c-0.1,0.05-0.2,0.07-0.31,0.07s-0.21,0-0.31,0c-0.07,0-0.14,0-0.22,0
		c-0.07,0-0.16-0.02-0.25-0.07l-0.36-0.11c-0.1,0-0.19,0.02-0.27,0.05c-0.08,0.04-0.17,0.08-0.27,0.13
		c-0.12,0.07-0.22,0.12-0.31,0.14c-0.08,0.02-0.15,0.04-0.2,0.04l-1.72-0.11l-2.73-0.25c-0.12,0.05-0.26,0.08-0.41,0.09
		c-0.16,0.01-0.34,0.02-0.56,0.02h-4.74c-0.26,0-0.48-0.04-0.65-0.13c-0.17-0.08-0.29-0.22-0.36-0.41L138.14,38.74z M138.65,63.92
		c0-0.05,0.02-0.14,0.05-0.27c0.04-0.13,0.11-0.33,0.23-0.59l0.22-0.86l2.05-0.22c0.43-0.05,0.85-0.08,1.26-0.11
		c0.41-0.02,0.8-0.04,1.19-0.04l0.83,0.18l0.5-0.14l0.29,0.14l0.97,0.11c0.22,0,0.4,0.01,0.54,0.04c0.14,0.03,0.27,0.05,0.4,0.07
		c0.14-0.07,0.32-0.12,0.54-0.14c0.22-0.02,0.45-0.04,0.72-0.04l0.79,0.11l0.97,0.07l1.33-0.22l0.97-0.07
		c0.29-0.02,0.53-0.04,0.72-0.05c0.19-0.01,0.36-0.02,0.5-0.02l6.14,0.04c1.39,0,2.45,0.01,3.18,0.04c0.73,0.03,1.12,0.05,1.17,0.07
		l1.72-0.18c0.48,0,0.95,0.02,1.42,0.05s0.94,0.09,1.42,0.16l0.14,0.72l0.11,0.75c0,0.29-0.03,0.53-0.09,0.72
		c-0.06,0.19-0.14,0.35-0.23,0.47c-0.12,0.12-0.23,0.2-0.34,0.25c-0.11,0.05-0.23,0.07-0.38,0.07l-1.26-0.11l-0.4,0.04
		c-0.19,0.05-0.34,0.07-0.45,0.07s-0.19-0.03-0.23-0.07l-0.86-0.07c-0.22-0.03-0.4-0.04-0.54-0.05c-0.14-0.01-0.25-0.02-0.32-0.02
		l-0.57,0.11l-0.72,0.07l-0.4-0.11c-0.07-0.03-0.13-0.04-0.18-0.05c-0.05-0.01-0.1-0.02-0.14-0.02l-1.4-0.04h-1.36L157,64.85
		l-0.32-0.07l-0.36,0.07c-0.05,0.07-0.13,0.12-0.25,0.14c-0.12,0.02-0.26,0.04-0.43,0.04l-3.56,0.04l-1.15-0.11
		c-0.07,0-0.16,0.01-0.25,0.04c-0.1,0.02-0.22,0.07-0.36,0.14c-0.07,0.05-0.14,0.08-0.2,0.09c-0.06,0.01-0.11,0.03-0.16,0.05
		c-0.07,0.02-0.13,0.04-0.16,0.04c-0.04,0-0.07,0-0.09,0l-1.51-0.18c-0.07,0-0.16,0-0.25,0c-0.1,0-0.19-0.01-0.29-0.04
		c-0.1,0-0.2-0.01-0.31-0.04c-0.11-0.03-0.21-0.05-0.31-0.07l-1.01-0.14l-0.43,0.11l-0.5,0.07l-5.89-0.18l-0.4-0.47
		c-0.07-0.07-0.12-0.15-0.14-0.23C138.66,64.06,138.65,63.99,138.65,63.92z M151.29,58.96l0.04-0.68c0-0.43,0.07-0.8,0.22-1.11
		c0.14-0.31,0.4-0.56,0.75-0.75c0.22-0.14,0.5-0.25,0.84-0.32c0.35-0.07,0.77-0.11,1.27-0.11c0.31,0,0.62,0.06,0.92,0.18
		c0.3,0.12,0.57,0.29,0.81,0.5c0.22,0.22,0.38,0.47,0.5,0.75c0.12,0.29,0.18,0.6,0.18,0.93c0,0.43-0.05,0.82-0.16,1.17
		c-0.11,0.35-0.27,0.64-0.48,0.88c-0.22,0.29-0.49,0.49-0.83,0.61c-0.34,0.12-0.69,0.18-1.08,0.18c-0.43,0-0.81-0.03-1.15-0.09
		c-0.34-0.06-0.61-0.17-0.83-0.34c-0.36-0.14-0.61-0.35-0.75-0.63c-0.14-0.27-0.22-0.6-0.22-0.99L151.29,58.96z"/>
	<path d="M190.9,49.73c-0.14,0.07-0.31,0.14-0.48,0.2c-0.18,0.06-0.35,0.09-0.52,0.09c-0.19,0.07-0.38,0.11-0.56,0.11
		c-0.18,0-0.36,0-0.56,0c-0.31,0-0.57-0.03-0.77-0.09c-0.2-0.06-0.35-0.15-0.45-0.27c-0.14-0.1-0.24-0.23-0.29-0.4
		c-0.05-0.17-0.07-0.37-0.07-0.61c0-0.12,0-0.27,0-0.45s0.01-0.38,0.04-0.59c0-0.1,0.01-0.18,0.02-0.27
		c0.01-0.08,0.02-0.15,0.02-0.2c0-0.05,0.01-0.09,0.02-0.13c0.01-0.04,0.02-0.07,0.02-0.09c0-0.24-0.01-0.47-0.02-0.68
		c-0.01-0.22-0.02-0.43-0.02-0.65c0-0.19,0-0.38,0-0.57c0-0.19,0-0.37,0-0.54c-0.07-1.24-0.11-2.21-0.13-2.89
		c-0.01-0.68-0.02-1.08-0.02-1.2v-0.25c0-0.05-0.01-0.11-0.04-0.18c-0.02-0.07-0.05-0.14-0.07-0.22c-0.02-0.02-0.05-0.05-0.07-0.09
		c-0.02-0.04-0.05-0.08-0.07-0.13c-0.02-0.05-0.05-0.1-0.07-0.14c-0.02-0.05-0.04-0.11-0.04-0.18c-0.05,0-0.1,0.01-0.16,0.02
		c-0.06,0.01-0.13,0.03-0.2,0.05c-0.05,0-0.11,0.01-0.2,0.02c-0.08,0.01-0.16,0.02-0.23,0.02c-0.22,0.05-0.39,0.07-0.52,0.07
		s-0.23,0-0.31,0c-0.07,0-0.15-0.01-0.23-0.04c-0.08-0.02-0.16-0.05-0.23-0.07c-0.1-0.02-0.2-0.04-0.32-0.05
		c-0.12-0.01-0.24-0.02-0.36-0.02c-0.22,0-0.44,0.01-0.66,0.02c-0.23,0.01-0.47,0.03-0.74,0.05c-0.26,0-0.54,0.01-0.83,0.04
		c-0.29,0.02-0.59,0.04-0.9,0.04c-0.65,0.05-1.15,0.07-1.51,0.07s-0.57,0-0.65,0c-0.07,0-0.14,0-0.2,0c-0.06,0-0.11-0.02-0.16-0.07
		c-0.07,0-0.13-0.01-0.18-0.04c-0.05-0.02-0.07-0.06-0.07-0.11c-0.12-0.12-0.22-0.25-0.29-0.38c-0.07-0.13-0.14-0.27-0.22-0.41
		c-0.07-0.12-0.13-0.25-0.16-0.4s-0.05-0.31-0.05-0.5c0.07-0.31,0.13-0.57,0.18-0.77c0.05-0.2,0.1-0.34,0.14-0.41
		c0.07-0.22,0.19-0.38,0.36-0.48c0.17-0.11,0.4-0.16,0.68-0.16h2.26c0.17,0,0.33,0.01,0.48,0.02c0.16,0.01,0.32,0.02,0.48,0.02
		c0.17,0,0.33,0,0.48,0c0.16,0,0.32,0,0.48,0c0.29,0,0.6,0.01,0.93,0.04c0.34,0.02,0.68,0.05,1.04,0.07
		c0.17-0.02,0.32-0.05,0.47-0.07c0.14-0.02,0.25-0.04,0.32-0.04h1.83c0.67,0,1.22,0.05,1.65,0.14c0.43,0.1,0.74,0.24,0.93,0.43
		c0.14,0.19,0.29,0.53,0.45,1.02c0.16,0.49,0.31,1.16,0.45,1.99c-0.07,0.12-0.12,0.24-0.14,0.36c-0.02,0.12-0.04,0.24-0.04,0.36
		c-0.02,0.14-0.04,0.3-0.04,0.47c0,0.17,0,0.35,0,0.54c0,0.14,0,0.28,0,0.41c0,0.13,0,0.26,0,0.38c0,0.14,0,0.28,0,0.4
		c0,0.12,0.01,0.23,0.04,0.32c0,0.17,0,0.37,0,0.61c0,0.24,0.02,0.5,0.07,0.79c0.02,0.31,0.05,0.56,0.07,0.75
		c0.02,0.19,0.04,0.32,0.04,0.4c0,0.17-0.01,0.32-0.02,0.45c-0.01,0.13-0.02,0.26-0.02,0.38c0,0.1,0,0.19,0,0.27
		c0,0.08,0,0.15,0,0.2c-0.07,0.65-0.12,1.13-0.14,1.45c-0.02,0.32-0.04,0.52-0.04,0.59c0,0.07,0,0.16,0,0.25c0,0.1,0,0.18,0,0.25
		c0,0.07,0.01,0.14,0.02,0.22c0.01,0.07,0.02,0.13,0.02,0.18c0,0.07,0.01,0.13,0.02,0.18C190.9,49.67,190.9,49.71,190.9,49.73z
		 M197.98,60.58c0,0.5-0.05,0.97-0.16,1.4c-0.11,0.43-0.27,0.85-0.48,1.26c-0.12,0.22-0.23,0.41-0.32,0.59
		c-0.1,0.18-0.18,0.34-0.25,0.48c-0.07,0.17-0.14,0.31-0.22,0.43c-0.07,0.12-0.12,0.23-0.14,0.32c-0.07,0.05-0.14,0.11-0.22,0.2
		c-0.07,0.08-0.14,0.2-0.22,0.34c-0.07,0.05-0.17,0.11-0.29,0.18c-0.12,0.07-0.25,0.14-0.4,0.22c-0.14,0.07-0.31,0.16-0.48,0.27
		s-0.38,0.21-0.59,0.31c-0.34,0.17-0.65,0.34-0.93,0.52c-0.29,0.18-0.55,0.34-0.79,0.48h-2.77l-0.32-0.18
		c-0.05-0.03-0.11-0.04-0.18-0.04s-0.16,0.01-0.25,0.04c-0.14-0.07-0.26-0.12-0.34-0.14c-0.08-0.03-0.14-0.04-0.16-0.04
		c-0.05,0-0.09,0.01-0.13,0.02c-0.04,0.01-0.08,0.02-0.13,0.02c-0.02,0-0.06,0-0.11,0c-0.05,0-0.08,0-0.11,0
		c-0.29,0-0.6-0.06-0.93-0.18c-0.34-0.12-0.69-0.32-1.08-0.61c-0.43-0.24-0.78-0.48-1.04-0.72c-0.26-0.24-0.45-0.48-0.57-0.72
		l-1.15-2.19c-0.02-0.05-0.04-0.11-0.05-0.18c-0.01-0.07-0.03-0.14-0.05-0.22c0-0.07-0.01-0.15-0.02-0.23
		c-0.01-0.08-0.02-0.16-0.02-0.23c-0.05-0.14-0.1-0.28-0.14-0.41c-0.05-0.13-0.11-0.27-0.18-0.41c0.02-0.1,0.1-0.35,0.22-0.75
		c0.12-0.41,0.25-0.97,0.4-1.69c0.1-0.5,0.22-0.94,0.36-1.33c0.14-0.38,0.31-0.72,0.5-1.01c0.07-0.07,0.13-0.13,0.18-0.18
		c0.05-0.05,0.1-0.1,0.16-0.14c0.06-0.05,0.13-0.11,0.2-0.18c0.14-0.1,0.26-0.2,0.34-0.32c0.08-0.12,0.15-0.25,0.2-0.4
		c0.1-0.07,0.18-0.15,0.25-0.23c0.07-0.08,0.14-0.2,0.22-0.34c0.05-0.1,0.17-0.19,0.36-0.29c0.19-0.1,0.43-0.19,0.72-0.29
		c0.36-0.29,0.76-0.51,1.2-0.66c0.44-0.16,0.94-0.23,1.49-0.23h2.44c0.07,0.07,0.16,0.13,0.25,0.18c0.1,0.05,0.22,0.07,0.36,0.07
		c0.05,0.02,0.1,0.04,0.16,0.05c0.06,0.01,0.1,0.03,0.13,0.05c0.05,0,0.09,0.01,0.13,0.02c0.04,0.01,0.07,0.02,0.09,0.02
		c0.79,0.36,1.49,0.77,2.1,1.24c0.61,0.47,1.13,0.99,1.56,1.56c0.38,0.57,0.68,1.22,0.9,1.92
		C197.87,58.93,197.98,59.71,197.98,60.58z M194.31,60.25c0-0.22-0.03-0.44-0.09-0.66c-0.06-0.23-0.13-0.45-0.2-0.66
		c-0.1-0.19-0.22-0.39-0.36-0.59c-0.14-0.2-0.3-0.42-0.47-0.66c-0.36-0.17-0.66-0.32-0.92-0.47s-0.45-0.26-0.59-0.36
		c-0.29-0.14-0.56-0.25-0.83-0.32c-0.26-0.07-0.53-0.11-0.79-0.11c-0.05,0-0.15,0.03-0.31,0.09c-0.16,0.06-0.36,0.13-0.63,0.2
		c-0.29,0.12-0.5,0.2-0.65,0.23c-0.14,0.04-0.28,0.07-0.41,0.11s-0.3,0.17-0.5,0.4c-0.2,0.23-0.38,0.55-0.52,0.95
		c-0.17,0.41-0.29,0.78-0.36,1.13c-0.07,0.35-0.11,0.66-0.11,0.95c0.05,0.12,0.09,0.25,0.13,0.4c0.04,0.14,0.05,0.29,0.05,0.43
		c-0.02,0.14-0.04,0.27-0.04,0.38c0,0.11,0,0.2,0,0.27c0,0.19,0.03,0.37,0.09,0.54c0.06,0.17,0.16,0.32,0.31,0.47
		c0.22,0.22,0.5,0.42,0.86,0.61c0.36,0.19,0.81,0.4,1.36,0.61c0.14,0.07,0.3,0.13,0.47,0.18c0.17,0.05,0.34,0.07,0.5,0.07
		c0.57,0,1.1-0.1,1.58-0.29c0.48-0.19,0.9-0.49,1.26-0.9c0.36-0.38,0.64-0.83,0.84-1.33C194.21,61.4,194.31,60.85,194.31,60.25z
		 M196.15,41.97c-0.43,0-0.83-0.04-1.19-0.11c-0.36-0.07-0.66-0.19-0.9-0.36c-0.36-0.17-0.62-0.4-0.77-0.7
		c-0.16-0.3-0.23-0.64-0.23-1.02c0-0.43,0.03-0.82,0.09-1.17c0.06-0.35,0.16-0.66,0.31-0.95c0.14-0.24,0.36-0.42,0.65-0.56
		c0.29-0.13,0.65-0.2,1.08-0.2c0.07,0,0.15,0,0.23,0c0.08,0,0.2-0.02,0.34-0.07c0.1-0.02,0.18-0.05,0.25-0.07
		c0.07-0.02,0.13-0.04,0.18-0.04c0.29,0,0.57,0.05,0.86,0.16c0.29,0.11,0.57,0.26,0.86,0.45c0.26,0.22,0.47,0.45,0.61,0.7
		c0.14,0.25,0.22,0.52,0.22,0.81c0,0.43-0.07,0.83-0.2,1.19s-0.31,0.69-0.52,1.01c-0.24,0.34-0.52,0.57-0.83,0.72
		S196.53,41.97,196.15,41.97z M196.25,49.41c-0.48,0-0.91-0.04-1.29-0.13c-0.38-0.08-0.69-0.23-0.93-0.45
		c-0.34-0.22-0.57-0.5-0.72-0.84c-0.14-0.35-0.22-0.76-0.22-1.24c0-0.36,0.04-0.69,0.11-0.99c0.07-0.3,0.19-0.56,0.36-0.77
		c0.14-0.22,0.34-0.38,0.59-0.5c0.25-0.12,0.54-0.18,0.88-0.18c0.1,0,0.21,0,0.34,0s0.28-0.02,0.45-0.07
		c0.14-0.02,0.26-0.05,0.36-0.07c0.1-0.02,0.17-0.04,0.22-0.04c0.29,0,0.56,0.07,0.81,0.2c0.25,0.13,0.48,0.31,0.7,0.52
		c0.22,0.24,0.39,0.49,0.52,0.75c0.13,0.26,0.2,0.54,0.2,0.83c0,0.43-0.05,0.81-0.14,1.13c-0.1,0.32-0.24,0.61-0.43,0.84
		c-0.22,0.36-0.48,0.62-0.79,0.77C196.95,49.33,196.61,49.41,196.25,49.41z M203.22,49.8c-0.05,0.14-0.08,0.29-0.11,0.43
		c-0.02,0.14-0.04,0.29-0.04,0.43c-0.02,0.12-0.05,0.25-0.07,0.38c-0.02,0.13-0.04,0.26-0.04,0.38c-0.12,0.34-0.28,0.57-0.48,0.72
		c-0.2,0.14-0.45,0.22-0.74,0.22c-0.07,0-0.14,0-0.22,0s-0.17-0.02-0.29-0.07c-0.07,0-0.13-0.01-0.18-0.02
		c-0.05-0.01-0.08-0.02-0.11-0.02c-0.05,0-0.09-0.01-0.13-0.02c-0.04-0.01-0.07-0.04-0.11-0.07s-0.08-0.08-0.13-0.14
		c-0.05-0.06-0.1-0.11-0.14-0.16c-0.02,0.02-0.05,0.04-0.09,0.05c-0.04,0.01-0.09,0.02-0.16,0.02l-0.14-0.07
		c-0.19,0-0.34-0.16-0.45-0.48c-0.11-0.32-0.18-0.8-0.23-1.42c-0.07-0.57-0.12-1.26-0.14-2.05c-0.02-0.79-0.04-1.69-0.04-2.69
		c0-0.38,0-0.79,0-1.22c0-0.43,0-0.86,0-1.29c0-0.22,0-0.43,0-0.65c0-0.22,0-0.44,0-0.68c0-0.22,0.01-0.44,0.02-0.66
		c0.01-0.23,0.03-0.47,0.05-0.74c0-0.24-0.02-0.51-0.05-0.81c-0.04-0.3-0.09-0.62-0.16-0.95c-0.07-0.33-0.13-0.61-0.16-0.83
		c-0.04-0.22-0.05-0.38-0.05-0.5c0.1-0.07,0.17-0.2,0.23-0.4c0.06-0.19,0.11-0.44,0.16-0.75c0-0.29,0.03-0.53,0.09-0.74
		c0.06-0.2,0.14-0.36,0.23-0.48l0.75-0.14c0.38,0,0.74,0.04,1.08,0.11c0.34,0.07,0.62,0.16,0.86,0.25c0.22,0.14,0.39,0.29,0.52,0.45
		c0.13,0.16,0.2,0.32,0.2,0.48v1.94c0,0.14-0.01,0.29-0.04,0.43s-0.05,0.3-0.07,0.47c-0.07,0.22-0.11,0.38-0.11,0.5
		c0,0.12,0,0.19,0,0.22c0,0.12,0.01,0.29,0.04,0.5c0.02,0.22,0.08,0.48,0.18,0.79c0,0.14,0.01,0.29,0.04,0.43s0.04,0.26,0.04,0.36
		c0,0.14-0.02,0.32-0.05,0.52c-0.04,0.2-0.08,0.44-0.13,0.7c-0.1,0.29-0.16,0.53-0.18,0.72c-0.02,0.19-0.04,0.35-0.04,0.47
		c0,0.12,0.01,0.26,0.02,0.43c0.01,0.17,0.05,0.34,0.13,0.5c0.07,0.19,0.13,0.35,0.16,0.47c0.04,0.12,0.05,0.2,0.05,0.25
		c0,0.29,0.01,0.61,0.02,0.97c0.01,0.36,0.04,0.78,0.09,1.26c0.02,0.5,0.05,0.94,0.07,1.31C203.21,49.26,203.22,49.56,203.22,49.8z"
		/>
	<path d="M229.01,49.62l0.11,0.75c0,0.19-0.03,0.4-0.09,0.61s-0.13,0.46-0.2,0.72c-0.1,0.26-0.2,0.46-0.31,0.57
		c-0.11,0.12-0.21,0.18-0.31,0.18c-0.07,0-0.2-0.01-0.38-0.02c-0.18-0.01-0.4-0.04-0.66-0.09c-0.14,0-0.27-0.01-0.38-0.04
		c-0.11-0.02-0.21-0.04-0.31-0.04c-0.1-0.02-0.18-0.04-0.27-0.05c-0.08-0.01-0.16-0.02-0.23-0.02c-0.12,0-0.25,0.01-0.38,0.04
		c-0.13,0.02-0.27,0.05-0.41,0.07c-0.19,0.05-0.34,0.07-0.43,0.07c-0.1,0-0.16,0-0.18,0c-0.22,0-0.44,0-0.66,0s-0.48-0.02-0.77-0.07
		c-0.34-0.02-0.59-0.05-0.77-0.07c-0.18-0.02-0.28-0.04-0.31-0.04l-0.32,0.07c-0.1,0.07-0.19,0.11-0.29,0.13
		c-0.1,0.01-0.19,0.02-0.29,0.02c-0.07,0-0.16,0-0.25,0s-0.19-0.01-0.29-0.04c-0.12,0-0.21-0.01-0.27-0.04
		c-0.06-0.02-0.56-0.02-1.49,0l-0.18,0.04c-0.1,0.1-0.18,0.17-0.25,0.22c-0.07,0.05-0.13,0.07-0.18,0.07
		c-0.14,0-0.28-0.01-0.41-0.04c-0.13-0.02-0.27-0.05-0.41-0.07c-0.12,0-0.25-0.01-0.38-0.04c-0.13-0.02-0.27-0.05-0.41-0.07
		c-0.17,0-0.32-0.01-0.47-0.02c-0.14-0.01-0.29-0.02-0.43-0.02c-0.14,0-0.29-0.01-0.43-0.02c-0.14-0.01-0.29-0.02-0.43-0.02h-0.79
		c-0.43,0-0.83-0.01-1.2-0.02c-0.37-0.01-0.74-0.04-1.1-0.09c-0.05-0.05-0.09-0.1-0.13-0.14c-0.04-0.05-0.07-0.08-0.09-0.11
		c-0.02-0.05-0.05-0.08-0.07-0.11c-0.02-0.02-0.04-0.06-0.04-0.11c-0.05-0.05-0.09-0.1-0.13-0.16c-0.04-0.06-0.05-0.11-0.05-0.16
		c-0.02-0.05-0.04-0.09-0.05-0.13s-0.02-0.08-0.02-0.13c0.02-0.17,0.05-0.34,0.09-0.52c0.04-0.18,0.09-0.36,0.16-0.56
		c0.05-0.19,0.18-0.33,0.41-0.43c0.23-0.1,0.53-0.14,0.92-0.14c0.22,0,0.43,0,0.63,0c0.2,0,0.4-0.01,0.59-0.04
		c0.17,0,0.34-0.01,0.5-0.04c0.17-0.02,0.32-0.07,0.47-0.14c0.5,0.07,0.99,0.13,1.47,0.16s0.93,0.05,1.36,0.05
		c0.5,0,1.15-0.01,1.96-0.02c0.8-0.01,1.74-0.04,2.82-0.09c1.08-0.02,2.02-0.05,2.84-0.07c0.81-0.02,1.51-0.04,2.08-0.04
		c0.1,0.02,0.19,0.05,0.29,0.07c0.07,0.02,0.16,0.04,0.25,0.05c0.1,0.01,0.22,0.03,0.36,0.05c0.07,0.05,0.16,0.07,0.25,0.07
		S228.89,49.62,229.01,49.62z M227.28,38.6c0,0.31-0.1,0.56-0.29,0.75c-0.19,0.19-0.47,0.32-0.83,0.4
		c-0.22,0.05-0.43,0.08-0.63,0.09c-0.2,0.01-0.41,0.02-0.63,0.02h-0.72c-0.07,0-0.14,0.01-0.22,0.02c-0.07,0.01-0.16,0.02-0.25,0.02
		c-0.1,0-0.2,0.01-0.32,0.02c-0.12,0.01-0.24,0.02-0.36,0.02c-0.29,0.05-0.51,0.07-0.66,0.07c-0.16,0-0.77-0.04-1.85-0.11h-0.4
		c0.65,0.14,1.22,0.29,1.72,0.45c0.5,0.16,0.95,0.32,1.33,0.48c0.55,0.34,0.97,0.71,1.26,1.13c0.29,0.42,0.43,0.88,0.43,1.38v2.23
		c0,0.34-0.05,0.62-0.14,0.86c-0.1,0.24-0.22,0.46-0.36,0.65c-0.14,0.14-0.27,0.28-0.38,0.41c-0.11,0.13-0.2,0.27-0.27,0.41
		c-0.22,0.29-0.45,0.55-0.72,0.77c-0.26,0.23-0.57,0.39-0.93,0.48c-0.36,0.14-0.74,0.24-1.13,0.29c-0.4,0.05-0.78,0.07-1.17,0.07
		h-0.9c-0.65-0.29-1.17-0.57-1.58-0.84c-0.41-0.27-0.72-0.52-0.93-0.74c-0.36-0.33-0.62-0.74-0.79-1.2c-0.17-0.47-0.25-1-0.25-1.6
		c0-0.89,0.14-1.67,0.41-2.35c0.27-0.68,0.7-1.25,1.27-1.71c0.14-0.07,0.29-0.15,0.43-0.23c0.14-0.08,0.3-0.17,0.47-0.27
		c0.14-0.1,0.29-0.18,0.45-0.27c0.16-0.08,0.32-0.17,0.48-0.27c-0.22-0.02-0.44-0.05-0.66-0.09s-0.45-0.07-0.66-0.09
		c-0.12,0-0.24,0-0.36,0s-0.24,0-0.36,0s-0.25-0.01-0.38-0.02c-0.13-0.01-0.27-0.02-0.41-0.02c-0.12,0-0.23,0.01-0.34,0.02
		c-0.11,0.01-0.21,0.02-0.31,0.02s-0.19,0-0.29,0c-0.1,0-0.19,0-0.29,0c-0.22,0-0.42,0-0.61,0s-0.37,0-0.54,0s-0.31-0.03-0.41-0.09
		c-0.11-0.06-0.18-0.16-0.23-0.31c-0.07-0.19-0.13-0.36-0.18-0.5c-0.05-0.14-0.07-0.26-0.07-0.36c0-0.07,0.01-0.14,0.04-0.2
		c0.02-0.06,0.04-0.13,0.04-0.2c0.02-0.07,0.04-0.14,0.05-0.22c0.01-0.07,0.02-0.14,0.02-0.22c0-0.1-0.01-0.19-0.04-0.29
		c-0.02-0.1-0.04-0.18-0.04-0.25c0.14-0.1,0.27-0.18,0.4-0.27c0.12-0.08,0.25-0.16,0.4-0.23c0.14-0.07,0.3-0.13,0.47-0.18
		c0.17-0.05,0.32-0.07,0.47-0.07c0.07,0,0.17,0.01,0.29,0.02c0.12,0.01,0.25,0.03,0.4,0.05c0.14,0,0.3,0.01,0.47,0.04
		c0.17,0.02,0.35,0.04,0.54,0.04c0.36,0.05,0.66,0.1,0.9,0.14c0.24,0.05,0.42,0.08,0.54,0.11c0.05-0.22,0.1-0.42,0.14-0.63
		c0.05-0.2,0.1-0.4,0.14-0.59c0.07-0.17,0.13-0.33,0.18-0.5c0.05-0.17,0.1-0.33,0.14-0.5c0.02-0.14,0.05-0.27,0.09-0.38
		c0.04-0.11,0.07-0.2,0.09-0.27c0-0.07,0.01-0.13,0.04-0.18c0.02-0.05,0.04-0.08,0.04-0.11c0.14,0,0.35,0,0.63,0
		c0.27,0,0.63-0.02,1.06-0.07c0.19,0,0.36-0.01,0.52-0.02c0.16-0.01,0.29-0.02,0.41-0.02c0.1,0,0.18-0.01,0.25-0.02
		c0.07-0.01,0.12-0.02,0.14-0.02c0.05,0.07,0.1,0.16,0.14,0.25c0.05,0.1,0.1,0.19,0.14,0.29c0.02,0.14,0.05,0.3,0.09,0.47
		c0.04,0.17,0.05,0.36,0.05,0.57v0.61l0.11,0.9l0.54-0.14c0.05,0.02,0.08,0.04,0.11,0.04s0.05,0,0.07,0s0.05,0,0.07,0
		c0.02,0.02,0.05,0.05,0.09,0.07c0.04,0.02,0.09,0.05,0.16,0.07c0.1-0.07,0.19-0.14,0.29-0.2c0.1-0.06,0.18-0.09,0.25-0.09
		c0.1,0,0.19,0.01,0.29,0.02c0.1,0.01,0.19,0.02,0.29,0.02s0.19,0,0.29,0c0.1,0,0.19,0,0.29,0c0.14,0.02,0.36,0.05,0.66,0.09
		s0.66,0.09,1.1,0.16c0.1,0.1,0.18,0.22,0.27,0.36s0.16,0.3,0.23,0.47c0.07,0.22,0.13,0.41,0.16,0.59
		C227.27,38.29,227.28,38.45,227.28,38.6z M243.05,67.4c0,0.19-0.05,0.36-0.16,0.52c-0.11,0.15-0.27,0.29-0.48,0.41
		c-0.12,0.07-0.23,0.14-0.34,0.2c-0.11,0.06-0.21,0.13-0.31,0.2H241c-0.29,0-0.62,0.01-0.99,0.04c-0.37,0.02-0.77,0.05-1.2,0.07
		c-0.24,0.02-0.45,0.04-0.63,0.05c-0.18,0.01-0.33,0.02-0.45,0.02s-0.22,0-0.31,0c-0.08,0-0.14,0-0.16,0c-0.22,0-0.41,0-0.57,0
		c-0.17,0-0.34,0-0.5,0c-0.14,0-0.28-0.01-0.41-0.02c-0.13-0.01-0.25-0.02-0.34-0.02c-0.96-0.05-1.7-0.08-2.23-0.11
		c-0.53-0.03-0.84-0.04-0.93-0.04c-0.53,0-1.03,0.01-1.51,0.02c-0.48,0.01-0.91,0.03-1.29,0.05c-0.74,0.05-1.4,0.09-1.98,0.13
		c-0.57,0.04-1.05,0.05-1.44,0.05c-0.41,0.02-0.72,0.04-0.95,0.05c-0.23,0.01-0.36,0.02-0.41,0.02c-0.12,0-0.24,0-0.36,0
		s-0.24,0-0.36,0c-0.14,0-0.29-0.01-0.45-0.02c-0.16-0.01-0.32-0.03-0.48-0.05c-0.36-0.03-0.65-0.05-0.86-0.07
		c-0.22-0.03-0.36-0.04-0.43-0.04c-0.07,0-0.16,0.01-0.25,0.04c-0.1,0.02-0.22,0.05-0.36,0.07c-0.07,0.02-0.14,0.04-0.2,0.05
		c-0.06,0.01-0.11,0.02-0.16,0.02c-0.02,0-0.05,0-0.09,0s-0.11,0-0.23,0s-0.29-0.01-0.5-0.02c-0.22-0.01-0.42-0.03-0.61-0.05
		c-0.72-0.07-1.26-0.13-1.63-0.18c-0.37-0.05-0.59-0.07-0.66-0.07c-0.34,0-0.62-0.05-0.84-0.16s-0.41-0.28-0.56-0.52
		c-0.1-0.1-0.18-0.2-0.27-0.32c-0.08-0.12-0.16-0.24-0.23-0.36c-0.07-0.1-0.14-0.2-0.22-0.32c-0.07-0.12-0.14-0.24-0.22-0.36
		c0-0.03,0.01-0.05,0.02-0.09c0.01-0.04,0.03-0.08,0.05-0.13c0-0.03,0-0.05,0-0.09c0-0.04,0-0.08,0-0.13c0-0.03,0.01-0.06,0.02-0.11
		c0.01-0.05,0.02-0.1,0.02-0.14c0-0.24-0.01-0.52-0.04-0.84c-0.02-0.32-0.05-0.68-0.07-1.06c-0.05-0.41-0.07-0.74-0.07-0.99
		s0-0.42,0-0.52c0-0.14,0.01-0.32,0.02-0.54c0.01-0.22,0.04-0.47,0.09-0.75c0-0.14,0.01-0.27,0.04-0.4
		c0.02-0.12,0.04-0.24,0.04-0.36c0.02-0.1,0.04-0.18,0.05-0.25c0.01-0.07,0.02-0.14,0.02-0.22c-0.02-0.07-0.04-0.13-0.04-0.18
		c0-0.02-0.01-0.06-0.02-0.13c-0.01-0.06-0.02-0.13-0.02-0.2c-0.05-0.1-0.07-0.2-0.07-0.32c0-0.12,0-0.22,0-0.29v-0.43
		c0.26-0.22,0.56-0.39,0.88-0.52c0.32-0.13,0.7-0.2,1.13-0.2c0.36,0,0.67,0.08,0.93,0.25c0.26,0.17,0.49,0.4,0.68,0.68
		c0.1,0.26,0.18,0.57,0.25,0.93c0.07,0.36,0.11,0.78,0.11,1.26c0,0.1-0.01,0.19-0.02,0.29c-0.01,0.1-0.02,0.2-0.02,0.32
		c0,0.1-0.01,0.2-0.02,0.32c-0.01,0.12-0.02,0.23-0.02,0.32c-0.02,0.24-0.04,0.48-0.05,0.74c-0.01,0.25-0.02,0.52-0.02,0.81
		c0,0.36,0.02,0.69,0.05,1.01c0.04,0.31,0.11,0.6,0.23,0.86c0.29,0.05,0.53,0.09,0.74,0.13c0.2,0.04,0.35,0.05,0.45,0.05
		c0.07,0,0.16,0,0.27,0s0.23,0,0.38,0c0.57,0,1.2-0.01,1.89-0.02c0.68-0.01,1.43-0.04,2.24-0.09c1.84-0.07,3.35-0.13,4.51-0.18
		c1.16-0.05,1.98-0.07,2.46-0.07c0.19,0,0.43,0.01,0.7,0.04c0.27,0.02,0.62,0.06,1.02,0.11c0.17,0.02,0.33,0.05,0.48,0.07
		c0.16,0.02,0.31,0.04,0.45,0.04c0.14,0.02,0.27,0.04,0.38,0.04s0.22,0,0.34,0c0.1,0,0.23-0.01,0.4-0.02
		c0.17-0.01,0.36-0.04,0.57-0.09c0.22-0.05,0.39-0.08,0.52-0.11c0.13-0.03,0.23-0.04,0.31-0.04c0.77,0,1.44,0.01,2.01,0.02
		c0.57,0.01,1.04,0.03,1.4,0.05c0.36,0.02,0.72,0.09,1.08,0.2c0.36,0.11,0.72,0.24,1.08,0.41c0,0.05,0.01,0.1,0.04,0.14
		c0.02,0.05,0.06,0.1,0.11,0.14c0.02,0.05,0.05,0.1,0.07,0.14c0.02,0.05,0.06,0.1,0.11,0.14c0.05,0.1,0.09,0.2,0.13,0.32
		C243.03,67.16,243.05,67.28,243.05,67.4z M222.87,54.94c0,0.41-0.07,0.78-0.2,1.11c-0.13,0.34-0.31,0.62-0.52,0.86
		c-0.22,0.26-0.48,0.45-0.81,0.56c-0.32,0.11-0.68,0.16-1.06,0.16c-0.43,0-0.81-0.04-1.15-0.11c-0.34-0.07-0.61-0.18-0.83-0.32
		c-0.34-0.17-0.57-0.4-0.72-0.68c-0.14-0.29-0.22-0.65-0.22-1.08c0-0.57,0.05-1.06,0.16-1.45s0.27-0.71,0.48-0.95
		c0.22-0.22,0.53-0.38,0.93-0.48c0.41-0.11,0.91-0.16,1.51-0.16c0.34,0,0.65,0.07,0.95,0.2c0.3,0.13,0.56,0.31,0.77,0.52
		c0.22,0.29,0.38,0.57,0.5,0.86C222.81,54.25,222.87,54.58,222.87,54.94z M219.96,43.3c-0.22,0-0.4,0.02-0.54,0.07
		c-0.14,0.05-0.26,0.11-0.36,0.18l-0.47,0.93c0,0.29,0.02,0.54,0.05,0.75c0.04,0.22,0.11,0.41,0.23,0.57
		c0.07,0.17,0.2,0.29,0.38,0.36c0.18,0.07,0.41,0.11,0.7,0.11c0.22,0,0.42-0.02,0.61-0.07c0.19-0.05,0.36-0.14,0.5-0.29
		c0.14-0.12,0.26-0.27,0.34-0.47c0.08-0.19,0.13-0.41,0.13-0.65c0-0.22-0.04-0.41-0.13-0.59c-0.08-0.18-0.2-0.35-0.34-0.52
		c-0.14-0.12-0.31-0.22-0.5-0.29C220.38,43.34,220.17,43.3,219.96,43.3z M237.95,54.33c0,0.24-0.02,0.45-0.07,0.63
		c-0.05,0.18-0.11,0.33-0.18,0.45c-0.05,0.03-0.1,0.05-0.16,0.07c-0.06,0.03-0.13,0.06-0.2,0.11c-0.07,0.03-0.16,0.06-0.27,0.11
		c-0.11,0.05-0.21,0.1-0.31,0.14c-0.29,0.12-0.52,0.2-0.68,0.25c-0.17,0.05-0.29,0.07-0.36,0.07c-0.17,0-0.32-0.02-0.47-0.05
		c-0.14-0.04-0.29-0.1-0.43-0.2c-0.14-0.07-0.27-0.17-0.4-0.29c-0.12-0.12-0.23-0.25-0.32-0.4c-0.07-0.07-0.11-0.22-0.13-0.43
		c-0.01-0.22-0.02-0.47-0.02-0.75c0-0.1,0.01-0.31,0.04-0.63c0.02-0.32,0.07-0.76,0.14-1.31c0-0.19,0.01-0.39,0.04-0.59
		c0.02-0.2,0.04-0.4,0.04-0.59l-0.11-3.88l-0.75,0.54c-0.36,0-0.71-0.01-1.06-0.02c-0.35-0.01-0.7-0.04-1.06-0.09
		c-0.34-0.05-0.65-0.17-0.93-0.38c-0.29-0.2-0.54-0.47-0.75-0.81l-0.04-2.01c0-0.29,0.07-0.54,0.22-0.77
		c0.14-0.23,0.36-0.42,0.65-0.59c0.29-0.14,0.59-0.27,0.9-0.38c0.31-0.11,0.63-0.16,0.97-0.16c0.12,0,0.24,0.01,0.36,0.04
		c0.12,0.02,0.25,0.06,0.4,0.11c0.12,0.02,0.25,0.06,0.4,0.11c0.14,0.05,0.3,0.1,0.47,0.14c0-0.14,0-0.32,0-0.54
		c0-0.22,0.01-0.47,0.04-0.75c0-0.12,0-0.24,0-0.36c0-0.12,0-0.24,0-0.36c0-0.1,0.01-0.19,0.02-0.29c0.01-0.1,0.02-0.18,0.02-0.25
		c0-0.07,0.01-0.17,0.02-0.29c0.01-0.12,0.04-0.26,0.09-0.43c0.02-0.14,0.05-0.28,0.07-0.41c0.02-0.13,0.04-0.23,0.04-0.31
		c0-0.02-0.01-0.07-0.02-0.14c-0.01-0.07-0.03-0.14-0.05-0.22c0-0.07-0.01-0.16-0.04-0.25c-0.02-0.1-0.04-0.2-0.04-0.32
		c-0.07-0.22-0.11-0.41-0.13-0.57c-0.01-0.17-0.02-0.31-0.02-0.43l0.25-0.29c0-0.1,0-0.22,0-0.36s0-0.31,0-0.5
		c0-0.14,0.02-0.3,0.07-0.47c0.05-0.17,0.13-0.33,0.25-0.5l1.19-0.11c0.24,0,0.49,0.02,0.75,0.07c0.26,0.05,0.53,0.11,0.79,0.18
		c0.02,0.14,0.06,0.29,0.11,0.43c0.05,0.14,0.11,0.29,0.18,0.43c0.02,0.12,0.05,0.29,0.09,0.5c0.04,0.22,0.05,0.47,0.05,0.75
		c0,0.07-0.01,0.15-0.02,0.23c-0.01,0.08-0.02,0.17-0.02,0.27c0,0.1,0,0.2,0,0.32c0,0.12,0,0.24,0,0.36
		c-0.02,0.26-0.04,0.47-0.04,0.61s0,0.25,0,0.32c0,0.22,0.01,0.44,0.02,0.68c0.01,0.24,0.04,0.52,0.09,0.83
		c0,0.19,0.01,0.36,0.04,0.5s0.04,0.26,0.04,0.36c0.02,0.12,0.04,0.22,0.05,0.31c0.01,0.08,0.02,0.15,0.02,0.2
		c0,0.19-0.01,0.38-0.04,0.57c-0.02,0.19-0.04,0.38-0.04,0.57c-0.07,0.53-0.12,0.95-0.14,1.27s-0.04,0.56-0.04,0.7v3.52
		c0,0.07,0.01,0.19,0.04,0.34c0.02,0.16,0.07,0.34,0.14,0.56c0,0.07,0.01,0.13,0.02,0.18c0.01,0.05,0.02,0.1,0.02,0.14
		c0,0.05,0.01,0.09,0.02,0.13c0.01,0.04,0.02,0.07,0.02,0.09c0,0.17-0.02,0.35-0.05,0.54c-0.04,0.19-0.08,0.4-0.13,0.61
		c-0.07,0.26-0.11,0.47-0.13,0.61s-0.02,0.24-0.02,0.29c0.02,0.1,0.05,0.19,0.07,0.27c0.02,0.08,0.04,0.15,0.04,0.2
		c0.02,0.07,0.05,0.14,0.07,0.2c0.02,0.06,0.05,0.1,0.07,0.13c0.02,0.17,0.05,0.32,0.09,0.47c0.04,0.14,0.07,0.28,0.09,0.4
		c0,0.12,0.01,0.23,0.04,0.32C237.94,54.17,237.95,54.25,237.95,54.33z M243.3,54.33c0,0.24-0.02,0.43-0.05,0.57
		c-0.04,0.14-0.09,0.25-0.16,0.32c-0.05,0.02-0.11,0.05-0.18,0.07c-0.07,0.02-0.16,0.06-0.25,0.11c-0.1,0.03-0.2,0.06-0.31,0.11
		c-0.11,0.05-0.22,0.1-0.34,0.14c-0.26,0.14-0.5,0.24-0.7,0.29c-0.2,0.05-0.36,0.07-0.48,0.07c-0.22,0-0.4-0.01-0.54-0.04
		c-0.14-0.02-0.25-0.07-0.32-0.14c-0.22-0.17-0.37-0.37-0.47-0.61c-0.1-0.24-0.14-0.51-0.14-0.83c0-0.72,0-1.55,0-2.5
		c0-0.95,0.02-1.99,0.07-3.14c0.02-1.15,0.05-2.05,0.07-2.71c0.02-0.66,0.04-1.08,0.04-1.27c0-0.24-0.01-0.48-0.04-0.74
		c-0.02-0.25-0.04-0.48-0.04-0.7c-0.1-0.72-0.16-1.29-0.2-1.71c-0.04-0.42-0.05-0.68-0.05-0.77c0-0.14,0.01-0.31,0.02-0.48
		c0.01-0.18,0.05-0.4,0.13-0.66c0.02-0.12,0.04-0.23,0.05-0.32c0.01-0.1,0.03-0.19,0.05-0.29c0.02-0.07,0.04-0.14,0.05-0.22
		c0.01-0.07,0.02-0.13,0.02-0.18c0-0.1-0.01-0.22-0.04-0.38c-0.02-0.16-0.05-0.35-0.07-0.59c-0.02-0.1-0.05-0.18-0.07-0.27
		c-0.02-0.08-0.05-0.17-0.07-0.27c-0.02-0.1-0.05-0.18-0.07-0.27c-0.02-0.08-0.04-0.16-0.04-0.23c0.02-0.07,0.05-0.19,0.09-0.36
		c0.04-0.17,0.08-0.4,0.13-0.68c0.02-0.26,0.09-0.49,0.2-0.68c0.11-0.19,0.23-0.33,0.38-0.43c0.26,0,0.51,0.01,0.74,0.04
		c0.23,0.02,0.45,0.04,0.66,0.04c0.17,0.02,0.35,0.05,0.54,0.09s0.38,0.09,0.57,0.16c0.12,0.69,0.22,1.36,0.29,1.99
		c0.07,0.63,0.11,1.24,0.11,1.81c0,0.22,0,0.47,0,0.77c0,0.3,0.02,0.63,0.07,0.99c0.02,0.41,0.05,0.72,0.07,0.93
		c0.02,0.22,0.04,0.36,0.04,0.43c0,0.12-0.01,0.25-0.02,0.38c-0.01,0.13-0.03,0.28-0.05,0.45c0,0.17-0.01,0.34-0.04,0.52
		s-0.04,0.37-0.04,0.56c-0.05,0.43-0.08,0.78-0.09,1.04c-0.01,0.26-0.02,0.44-0.02,0.54c0,0.38,0.01,0.86,0.02,1.42
		c0.01,0.56,0.04,1.2,0.09,1.92c0,0.36,0.01,0.69,0.04,1.01c0.02,0.31,0.04,0.6,0.04,0.86c0.02,0.24,0.04,0.46,0.05,0.66
		c0.01,0.2,0.02,0.37,0.02,0.48c0,0.17,0.01,0.37,0.02,0.61c0.01,0.24,0.04,0.52,0.09,0.83c0,0.19,0.01,0.35,0.04,0.48
		c0.02,0.13,0.04,0.25,0.04,0.34c0.02,0.12,0.04,0.22,0.05,0.29S243.3,54.3,243.3,54.33z"/>
	<path d="M279,61.51c-0.05,0.07-0.07,0.16-0.07,0.27c0,0.11,0,0.22,0,0.34c0,0.07,0,0.16,0,0.27c0,0.11,0,0.21,0,0.31
		c0,0.05,0,0.1,0,0.16c0,0.06,0,0.11,0,0.16c0,0.05,0.01,0.1,0.02,0.16c0.01,0.06,0.03,0.13,0.05,0.2c0,0.19-0.02,0.38-0.07,0.57
		c-0.05,0.19-0.11,0.37-0.18,0.54c-0.07,0-0.14,0.01-0.2,0.02c-0.06,0.01-0.13,0.02-0.2,0.02s-0.14,0-0.2,0s-0.13,0-0.2,0
		c-0.17,0-0.3,0-0.4,0c-0.1,0-0.18,0-0.25,0c-0.22,0-0.42,0-0.61,0s-0.38,0-0.57,0c-0.19,0-0.38-0.01-0.56-0.02
		c-0.18-0.01-0.35-0.02-0.52-0.02c-0.07,0-0.15,0.01-0.23,0.02c-0.08,0.01-0.17,0.03-0.27,0.05c-0.07,0.02-0.13,0.04-0.18,0.05
		c-0.05,0.01-0.1,0.02-0.14,0.02c-0.02,0-0.05,0-0.09,0s-0.07,0-0.09,0c-0.07,0-0.14,0-0.22,0c-0.07,0-0.14,0-0.22,0
		c-0.05,0-0.1-0.01-0.16-0.02c-0.06-0.01-0.1-0.02-0.13-0.02c-0.43-0.05-0.76-0.08-0.99-0.11c-0.23-0.03-0.35-0.04-0.38-0.04
		l-2.19,0.04c-0.22,0-0.44,0-0.66,0s-0.47,0-0.74,0c-0.29,0-0.58-0.01-0.88-0.02c-0.3-0.01-0.61-0.03-0.92-0.05
		c-0.69-0.03-1.24-0.05-1.63-0.07c-0.4-0.03-0.64-0.04-0.74-0.04l-1.87,0.04c-0.14,0-0.29,0.01-0.43,0.02
		c-0.14,0.01-0.27,0.03-0.4,0.05c-0.14,0.02-0.29,0.05-0.45,0.09s-0.31,0.08-0.45,0.13c-0.14-0.07-0.32-0.13-0.54-0.16
		c-0.22-0.04-0.47-0.07-0.75-0.09c-0.29-0.03-0.55-0.04-0.79-0.05c-0.24-0.01-0.47-0.02-0.68-0.02c-0.19,0-0.43,0.01-0.72,0.02
		c-0.29,0.01-0.63,0.03-1.04,0.05c-0.22,0.02-0.4,0.04-0.56,0.05c-0.16,0.01-0.28,0.02-0.38,0.02c-0.12,0-0.21,0-0.27,0
		c-0.06,0-0.11,0.01-0.14,0.02c-0.04,0.01-0.08,0.03-0.14,0.05c-0.06,0.02-0.11,0.04-0.16,0.04c-0.05,0.02-0.1,0.04-0.14,0.04
		c-0.05,0-0.08,0-0.11,0c-0.17-0.05-0.31-0.08-0.43-0.11c-0.12-0.03-0.22-0.04-0.29-0.04c-0.07,0-0.14,0.01-0.2,0.04
		c-0.06,0.02-0.1,0.04-0.13,0.04c-0.07,0-0.13,0.01-0.16,0.04c-0.04,0.02-0.07,0.05-0.09,0.07l-0.29-0.14h-0.43
		c-0.14,0-0.3,0.01-0.47,0.04c-0.17,0.02-0.36,0.07-0.57,0.14c-0.12,0.02-0.23,0.05-0.32,0.07c-0.1,0.02-0.18,0.04-0.25,0.04
		c-0.07,0.02-0.14,0.04-0.2,0.04s-0.1,0-0.13,0c-0.05,0-0.09,0-0.13,0c-0.04,0-0.07-0.01-0.09-0.04c-0.05,0-0.1-0.01-0.16-0.04
		c-0.06-0.03-0.11-0.05-0.16-0.07c-0.14-0.07-0.27-0.13-0.4-0.18c-0.12-0.05-0.23-0.1-0.32-0.14c-0.14-0.12-0.25-0.26-0.31-0.41
		c-0.06-0.15-0.1-0.32-0.13-0.48c-0.05-0.17-0.07-0.35-0.07-0.56c0-0.2,0-0.41,0-0.63c0.07-0.02,0.13-0.07,0.16-0.14
		c0.04-0.07,0.08-0.17,0.13-0.29c0.02-0.05,0.05-0.1,0.07-0.14c0.02-0.05,0.05-0.1,0.07-0.14c0-0.02,0.01-0.05,0.04-0.09
		c0.02-0.04,0.06-0.06,0.11-0.09c0.14,0,0.34-0.01,0.59-0.02c0.25-0.01,0.56-0.04,0.92-0.09c0.31-0.02,0.59-0.05,0.83-0.07
		c0.24-0.02,0.44-0.04,0.61-0.04l2.3,0.04c0.07,0.05,0.13,0.09,0.16,0.13s0.07,0.05,0.09,0.05l0.47-0.18
		c0.02,0.07,0.09,0.13,0.2,0.16c0.11,0.04,0.26,0.05,0.45,0.05c0.07,0,0.16-0.01,0.27-0.02c0.11-0.01,0.23-0.04,0.38-0.09
		c0.14-0.02,0.27-0.05,0.4-0.07c0.12-0.02,0.23-0.04,0.32-0.04c0.05,0,0.1,0.01,0.14,0.04c0.05,0.03,0.11,0.04,0.18,0.04
		c0.05,0.05,0.1,0.08,0.14,0.09c0.05,0.01,0.11,0.02,0.18,0.02c0.05,0,0.11,0,0.18,0c0.07,0,0.18-0.02,0.32-0.07
		c0.1-0.02,0.18-0.05,0.25-0.07c0.07-0.02,0.13-0.04,0.18-0.04l2.51,0.11c0.07,0,0.17,0,0.31,0c0.13,0,0.29-0.02,0.48-0.07
		c0.17-0.02,0.31-0.05,0.43-0.07c0.12-0.02,0.22-0.04,0.29-0.04c0.22,0,0.45,0.01,0.72,0.04c0.26,0.03,0.57,0.05,0.93,0.07
		c0.31,0.05,0.57,0.07,0.77,0.07c0.2,0,0.34,0,0.41,0c0.24,0,0.54-0.01,0.92-0.02c0.37-0.01,0.82-0.05,1.35-0.13
		c0.24,0,0.47-0.01,0.68-0.04c0.22-0.02,0.42-0.04,0.61-0.04c0.19-0.02,0.36-0.04,0.52-0.05c0.16-0.01,0.31-0.02,0.45-0.02
		c0.07,0,0.17,0,0.29,0c0.12,0,0.26-0.02,0.43-0.07c0.07,0,0.14-0.01,0.2-0.02c0.06-0.01,0.13-0.02,0.2-0.02
		c0.05,0,0.1-0.01,0.14-0.02c0.05-0.01,0.1-0.02,0.14-0.02H272h0.47h0.43c0.22,0,0.44,0,0.66,0s0.45,0,0.66,0s0.44,0,0.66,0
		c0.23,0,0.46-0.01,0.7-0.04h0.4c0.26,0,0.52,0.02,0.75,0.05s0.47,0.08,0.68,0.13c0.22,0.07,0.4,0.13,0.54,0.18
		c0.14,0.05,0.24,0.11,0.29,0.18l0.29-0.07c0.05,0,0.11,0.02,0.18,0.05C278.78,61.38,278.88,61.44,279,61.51z M278.28,56.27
		c0,0.17-0.05,0.34-0.14,0.52c-0.1,0.18-0.23,0.37-0.4,0.56c-0.07,0.12-0.18,0.26-0.32,0.41c-0.14,0.16-0.32,0.32-0.54,0.48
		l-0.65,0.04l-0.36-0.04c-0.14-0.1-0.41-0.36-0.79-0.81c-0.38-0.44-0.86-1.06-1.44-1.85c-0.29-0.29-0.55-0.56-0.79-0.81
		s-0.47-0.46-0.68-0.63l-0.36-0.75c-0.05,0-0.1-0.03-0.16-0.09c-0.06-0.06-0.13-0.15-0.2-0.27c-0.1-0.1-0.2-0.21-0.31-0.34
		c-0.11-0.13-0.22-0.28-0.34-0.45c-0.6-0.65-1.04-1.16-1.31-1.54c-0.27-0.38-0.41-0.62-0.41-0.72c0-0.12-0.07-0.27-0.2-0.47
		c-0.13-0.19-0.32-0.43-0.56-0.72c-0.22-0.22-0.42-0.41-0.61-0.59c-0.19-0.18-0.38-0.34-0.57-0.48c-0.05-0.05-0.09-0.12-0.13-0.22
		c-0.04-0.1-0.07-0.22-0.09-0.36c-0.07-0.14-0.13-0.26-0.16-0.34c-0.04-0.08-0.07-0.16-0.09-0.23c-0.05-0.07-0.11-0.16-0.2-0.25
		c-0.08-0.1-0.17-0.19-0.27-0.29c-0.12-0.07-0.23-0.16-0.34-0.25c-0.11-0.1-0.21-0.2-0.31-0.32c-0.29-0.36-0.51-0.65-0.66-0.88
		c-0.16-0.23-0.25-0.38-0.27-0.45c-0.14-0.19-0.3-0.41-0.47-0.66s-0.32-0.52-0.47-0.81c-0.14,0.07-0.33,0.24-0.56,0.5
		c-0.23,0.26-0.51,0.61-0.84,1.04c-0.34,0.46-0.6,0.84-0.79,1.15c-0.19,0.31-0.3,0.54-0.32,0.68c-0.19,0.05-0.35,0.12-0.48,0.22
		c-0.13,0.1-0.23,0.22-0.31,0.36c-0.29,0.5-0.53,0.88-0.72,1.13s-0.31,0.39-0.36,0.41c-0.43,0.67-0.97,1.45-1.62,2.33
		c-0.65,0.89-1.39,1.88-2.23,2.98c-1.01,1.29-1.84,2.32-2.5,3.09c-0.66,0.77-1.15,1.28-1.49,1.54c-0.07,0.07-0.16,0.13-0.27,0.16
		c-0.11,0.04-0.23,0.05-0.38,0.05c-0.17,0.03-0.33,0.04-0.48,0.05c-0.16,0.01-0.29,0.02-0.41,0.02c-0.07-0.02-0.16-0.1-0.27-0.23
		c-0.11-0.13-0.21-0.32-0.31-0.56c-0.12-0.22-0.2-0.4-0.25-0.54c-0.05-0.14-0.07-0.25-0.07-0.32c0-0.19,0.04-0.41,0.13-0.65
		c0.08-0.24,0.22-0.5,0.41-0.79c0.07-0.14,0.2-0.32,0.38-0.52c0.18-0.2,0.41-0.45,0.7-0.74c0.1-0.1,0.22-0.23,0.36-0.41
		c0.14-0.18,0.3-0.41,0.47-0.7c0.34-0.5,0.62-0.92,0.84-1.24c0.23-0.32,0.4-0.54,0.52-0.66c0.1-0.1,0.31-0.34,0.63-0.74
		c0.32-0.4,0.75-0.93,1.27-1.6c0.14-0.17,0.27-0.32,0.38-0.47s0.2-0.26,0.27-0.36c0.07-0.1,0.13-0.17,0.16-0.23
		c0.04-0.06,0.07-0.1,0.09-0.13c0.07-0.22,0.17-0.44,0.31-0.68c0.13-0.24,0.32-0.47,0.56-0.68c0.22-0.22,0.42-0.44,0.61-0.68
		c0.19-0.24,0.38-0.49,0.57-0.75c0.07-0.07,0.26-0.33,0.56-0.79c0.3-0.45,0.7-1.08,1.2-1.87c0.24-0.36,0.52-0.75,0.83-1.17
		c0.31-0.42,0.66-0.84,1.04-1.27c0.22-0.24,0.43-0.48,0.63-0.72c0.2-0.24,0.4-0.45,0.59-0.65c0.17-0.19,0.33-0.37,0.48-0.54
		c0.16-0.17,0.29-0.32,0.41-0.47l0.4-0.29c0,0.07,0.03,0.15,0.09,0.23c0.06,0.08,0.14,0.17,0.23,0.27c0.1,0.12,0.2,0.25,0.32,0.38
		c0.12,0.13,0.26,0.28,0.43,0.45c0.24,0.31,0.45,0.6,0.65,0.86c0.19,0.26,0.32,0.5,0.4,0.72l0.5,0.65c0.02,0.07,0.05,0.14,0.07,0.22
		c0.02,0.07,0.05,0.13,0.07,0.18c0.02,0.07,0.05,0.14,0.09,0.2c0.04,0.06,0.08,0.11,0.13,0.16c0.19,0.17,0.36,0.32,0.5,0.45
		c0.14,0.13,0.26,0.25,0.36,0.34c0.07,0.12,0.16,0.27,0.27,0.45c0.11,0.18,0.23,0.38,0.38,0.59c0.12,0.07,0.23,0.15,0.32,0.23
		c0.1,0.08,0.18,0.19,0.25,0.31c0.17,0.07,0.31,0.16,0.41,0.27c0.11,0.11,0.18,0.23,0.23,0.38c0.02,0.14,0.05,0.27,0.09,0.38
		c0.04,0.11,0.08,0.17,0.13,0.2c0.38,0.48,0.68,0.84,0.9,1.1c0.22,0.25,0.36,0.4,0.43,0.45c0.1,0.17,0.2,0.33,0.31,0.48
		c0.11,0.16,0.21,0.29,0.31,0.41c0.1,0.14,0.18,0.28,0.27,0.41c0.08,0.13,0.16,0.26,0.23,0.38c0.07,0.14,0.31,0.47,0.7,0.99
		c0.4,0.52,0.98,1.2,1.74,2.07c0.45,0.57,0.92,1.14,1.38,1.69c0.47,0.55,0.94,1.08,1.42,1.58c0.05,0.1,0.1,0.19,0.14,0.27
		c0.05,0.08,0.1,0.16,0.14,0.23c0.05,0.07,0.1,0.14,0.14,0.22c0.05,0.07,0.1,0.14,0.14,0.22c0.07,0.14,0.13,0.3,0.18,0.47
		C278.26,55.97,278.28,56.12,278.28,56.27z"/>
</g>
<rect x="4" y="21.78" class="st0" width="57.27" height="57.27"/>
<path class="st0" d="M26.23,79.46L26.1,50c0-2.61,2.02-4.73,4.52-4.73h0c2.5,0,4.52,2.12,4.52,4.73l0.13,29.47"/>
<path class="st0" d="M18.43,79.02l-0.11-23.91c0-2.12,1.72-3.84,3.84-3.84h0c2.12,0,3.84,1.72,3.84,3.84l0.11,23.91"/>
<path class="st0" d="M35.13,69.52c-2.5,0-4.53-2.03-4.53-4.53c0-2.5,2.03-4.53,4.53-4.53V69.52z"/>
<path class="st0" d="M9.28,79.46L9.14,50c0-2.61,2.02-4.73,4.52-4.73h0c2.5,0,4.52,2.12,4.52,4.73l0.13,29.47"/>
<polygon class="st1" points="61.27,27.45 49,37.9 55.13,37.9 43.88,49.86 55.81,49.86 39.11,64.31 55.13,64.31 54.96,79.02 
	61.27,79.05 "/>
<path class="st0" d="M18.18,69.05c-2.19,0-3.97-1.78-3.97-3.97s1.78-3.97,3.97-3.97V69.05z"/>
<path class="st0" d="M18.31,69.05c2.19,0,3.97-1.78,3.97-3.97s-1.78-3.97-3.97-3.97V69.05z"/>
<path class="st0" d="M26.15,69.05c-2.19,0-3.97-1.78-3.97-3.97s1.78-3.97,3.97-3.97V69.05z"/>
<path class="st0" d="M26.06,69.05c2.19,0,3.97-1.78,3.97-3.97s-1.78-3.97-3.97-3.97V69.05z"/>
<path class="st0" d="M9.33,69.74c2.5,0,4.53-2.03,4.53-4.53c0-2.5-2.03-4.53-4.53-4.53V69.74z"/>
</svg>
